<svg id="esizEwAGY631" xmlns="http://www.w3.org/2000/svg" xmlns:xlink="http://www.w3.org/1999/xlink" viewBox="0 0 655.5 496" shape-rendering="geometricPrecision" text-rendering="geometricPrecision">
<style><![CDATA[
#esizEwAGY6384_tr {animation: esizEwAGY6384_tr__tr 3000ms linear infinite normal forwards}@keyframes esizEwAGY6384_tr__tr { 0% {transform: translate(123.4px,439.6px) rotate(-135.864315deg)} 100% {transform: translate(123.4px,439.6px) rotate(-0.156366deg)}} #esizEwAGY6393_tr {animation: esizEwAGY6393_tr__tr 3000ms linear infinite normal forwards}@keyframes esizEwAGY6393_tr__tr { 0% {transform: translate(537.119934px,278.365318px) rotate(0deg)} 100% {transform: translate(537.119934px,278.365318px) rotate(360.000004deg)}} #esizEwAGY6395 {animation: esizEwAGY6395_c_o 3000ms linear infinite normal forwards}@keyframes esizEwAGY6395_c_o { 0% {opacity: 0} 33.333333% {opacity: 1} 66.666667% {opacity: 0} 100% {opacity: 1}}
]]></style>
<g><rect width="655.5" height="496" rx="0" ry="0" fill="#fff" stroke-width="0"/><path d="M46.6,39.4h256.2c5.6,0,10.1,4.5,10.1,10.1v271.9c0,5.6-4.5,10.1-10.1,10.1h-256.2c-5.6,0-10.1-4.5-10.1-10.1v-271.9c0-5.6,4.5-10.1,10.1-10.1Z" fill="#00cc61"/><path d="M176.9,202.6h256.2c5.6,0,10.1,4.5,10.1,10.1v160.2c0,5.6-4.5,10.1-10.1,10.1h-256.2c-5.6,0-10.1-4.5-10.1-10.1v-160.2c0-5.6,4.5-10.1,10.1-10.1Z" fill="#fff"/><g><path d="M234.2,179.3c-2.4-15.3-10.1-29.8-21.1-41.1l-15.8,19.7c4.2,6.6,7,14.2,8,22.5.2,1.5,1.4,2.6,2.9,2.6l23.1-.3c1.8-.1,3.1-1.7,2.9-3.4v0Z" fill="#fff"/><path d="M160,114.9c-38,0-69.3,27.9-73.7,64.6-.2,1.7,1,3.2,2.7,3.4c1.6.2,3-.9,3.3-2.5c5-27.3,28.9-47.7,57.8-47.7c8.7,0,16.8,1.8,24,5.1l19.1-14.5c-10.1-5.3-21.4-8.4-33.2-8.4v0Z" fill="#fff"/></g><path d="M209.2,124.4v0c-.5-.4-1.1-.4-1.6,0L158,161.5v0c-1.8-.4-3.7-.5-5.6-.3-9.1,1-16.3,8.7-16.6,17.9-.3,10.6,8.1,19.2,18.6,19.2s18.6-8.3,18.6-18.6c0-1.6-.2-3.1-.6-4.6l37.1-48.9c.3-.6.2-1.4-.3-1.8v0Z" transform="matrix(.999941 0.010908-.010908 0.999941 1.966245-1.665349)" fill="#2e2f49"/><path d="M118.7,238.9l9.8-9.8c.3-.3.3-.8,0-1.1l-9.8-9.4c-2.2-2.1-2.1-5.5,0-7.6v0c2.1-2,5.3-1.9,7.3.1l14.2,14.1c1.7,1.7,1.8,4.5.1,6.2l-14.1,14.8c-2,2.1-5.2,2.2-7.3.3v0c-2.2-2-2.3-5.5-.2-7.6v0Z" fill="#2e2f49"/><path d="M149.6,238.9l9.8-9.8c.3-.3.3-.8,0-1.1l-9.8-9.4c-2.1-2.1-2.1-5.5,0-7.6v0c2.1-2,5.3-1.9,7.3.1l14.2,14.1c1.7,1.7,1.8,4.5.1,6.2l-14.1,14.8c-2,2.1-5.2,2.2-7.3.3v0c-2.3-2-2.4-5.5-.2-7.6v0Z" fill="#2e2f49"/><line x1="342.4" y1="82.5" x2="619" y2="82.5" fill="none" stroke="#ccd3ef" stroke-linecap="round" stroke-miterlimit="10"/><line x1="470.9" y1="201.3" x2="470.9" y2="107.1" fill="none" stroke="#ccd3ef" stroke-linecap="round" stroke-miterlimit="10"/><g><path d="M217.3,258.5c-.6-.3-1.1-.7-1.5-1.2s-.6-1.1-.6-1.8h2.5c0,.5.2.8.5,1.1s.7.4,1.2.4s1-.1,1.3-.4.5-.6.5-1c0-.3-.1-.6-.3-.8s-.5-.4-.8-.5-.7-.3-1.3-.4c-.7-.2-1.4-.4-1.8-.7-.5-.2-.9-.5-1.2-1-.3-.4-.5-1-.5-1.7s.2-1.3.5-1.8.8-.9,1.4-1.2s1.3-.4,2.1-.4c1.2,0,2.1.3,2.9.9.7.6,1.1,1.4,1.2,2.4h-2.5c0-.4-.2-.7-.5-1s-.7-.4-1.2-.4c-.4,0-.8.1-1.1.3s-.4.6-.4,1c0,.3.1.6.3.8s.5.4.8.5.7.3,1.3.4c.7.2,1.4.4,1.8.7.5.2.9.5,1.2,1c.3.4.5,1,.5,1.7c0,.6-.2,1.2-.5,1.7s-.8.9-1.4,1.3-1.3.5-2.2.5c-.8,0-1.5-.2-2.2-.4Z" fill="#03003d"/><path d="M225.5,251.7c.4-.7.9-1.3,1.6-1.6.7-.4,1.5-.6,2.3-.6c1.1,0,2.1.3,2.8.8s1.2,1.4,1.5,2.4h-2.5c-.1-.4-.4-.7-.7-.9s-.7-.3-1.2-.3c-.7,0-1.2.2-1.6.7s-.6,1.2-.6,2c0,.9.2,1.5.6,2s.9.7,1.6.7c.9,0,1.5-.4,1.8-1.2h2.5c-.3,1-.8,1.8-1.5,2.4s-1.7.9-2.8.9c-.9,0-1.7-.2-2.3-.6-.7-.4-1.2-.9-1.6-1.6s-.6-1.5-.6-2.5.3-1.9.7-2.6Z" fill="#03003d"/><path d="M237.1,258.3c-.7-.4-1.3-.9-1.7-1.7s-.6-1.5-.6-2.5c0-.9.2-1.8.6-2.5s1-1.3,1.7-1.7s1.5-.6,2.4-.6s1.7.2,2.4.6s1.3.9,1.7,1.7.6,1.5.6,2.5c0,.9-.2,1.8-.6,2.5s-1,1.3-1.7,1.7-1.5.6-2.4.6-1.7-.2-2.4-.6Zm3.6-1.7c.4-.2.7-.5.9-.9s.3-.9.3-1.5c0-.9-.2-1.5-.7-2s-1-.7-1.7-.7-1.2.2-1.7.7c-.4.5-.7,1.1-.7,2s.2,1.5.6,2s1,.7,1.6.7s1-.1,1.4-.3Z" fill="#03003d"/><path d="M249.4,249.9c.5-.3,1-.4,1.6-.4v2.4h-.6c-.7,0-1.3.2-1.6.5-.4.3-.6.9-.6,1.8v4.5h-2.3v-9.1h2.3v1.4c.3-.4.7-.8,1.2-1.1Z" fill="#03003d"/><path d="M261,254.9h-6.7c.1.7.3,1.2.7,1.5.4.4.9.6,1.5.6.9,0,1.5-.4,1.8-1.1h2.5c-.3.9-.8,1.6-1.5,2.2s-1.7.8-2.7.8c-.9,0-1.7-.2-2.4-.6s-1.2-.9-1.6-1.7c-.4-.7-.6-1.5-.6-2.5c0-.9.2-1.8.6-2.5s.9-1.3,1.6-1.6c.7-.4,1.5-.6,2.4-.6s1.6.2,2.3.6s1.2.9,1.6,1.6.6,1.5.6,2.4c-.1.3-.1.6-.1.9Zm-2.3-1.5c0-.6-.2-1.1-.6-1.4-.4-.4-.9-.5-1.5-.5s-1.1.2-1.4.5c-.4.3-.6.8-.7,1.4h4.2Z" fill="#03003d"/><path d="M266.6,251.7c.4-.7.9-1.3,1.5-1.6.6-.4,1.3-.6,2.1-.6.6,0,1.2.1,1.7.4s1,.6,1.3,1v-4.3h2.3v12.2h-2.3v-1.3c-.3.4-.7.8-1.2,1.1s-1.1.4-1.8.4c-.8,0-1.5-.2-2.1-.6s-1.1-1-1.5-1.7-.6-1.5-.6-2.5c0-.9.2-1.8.6-2.5Zm6.3,1.1c-.2-.4-.5-.7-.9-.9s-.8-.3-1.2-.3-.8.1-1.2.3-.7.5-.9.9-.3.9-.3,1.4.1,1,.3,1.4.5.7.9.9.8.3,1.2.3.8-.1,1.2-.3.7-.5.9-.9.3-.9.3-1.4-.1-1-.3-1.4Z" fill="#03003d"/><path d="M286.2,254.9h-6.7c.1.7.3,1.2.7,1.5.4.4.9.6,1.5.6.9,0,1.5-.4,1.8-1.1h2.5c-.3.9-.8,1.6-1.5,2.2s-1.7.8-2.7.8c-.9,0-1.7-.2-2.4-.6s-1.2-.9-1.6-1.7c-.4-.7-.6-1.5-.6-2.5c0-.9.2-1.8.6-2.5s.9-1.3,1.6-1.6c.7-.4,1.5-.6,2.4-.6s1.6.2,2.3.6s1.2.9,1.6,1.6.6,1.5.6,2.4c0,.3-.1.6-.1.9Zm-2.3-1.5c0-.6-.2-1.1-.6-1.4-.4-.4-.9-.5-1.5-.5s-1.1.2-1.4.5c-.4.3-.6.8-.7,1.4h4.2Z" fill="#03003d"/><path d="M295.4,249.9c.5-.3,1.1-.4,1.8-.4.8,0,1.5.2,2.1.6s1.1.9,1.5,1.6.6,1.5.6,2.5c0,.9-.2,1.8-.6,2.5s-.9,1.3-1.5,1.7-1.3.6-2.1.6c-.7,0-1.3-.1-1.8-.4s-.9-.6-1.2-1v5.6h-2.3v-13.5h2.3v1.3c.3-.4.7-.8,1.2-1.1Zm3.2,2.9c-.2-.4-.5-.7-.9-.9s-.8-.3-1.2-.3-.8.1-1.2.3-.7.5-.9.9-.3.9-.3,1.4.1,1,.3,1.4.5.7.9.9.8.3,1.2.3.8-.1,1.2-.3.7-.5.9-.9.3-.9.3-1.4c.1-.6,0-1-.3-1.4Z" fill="#03003d"/><path d="M311.4,254.9h-6.7c.1.7.3,1.2.7,1.5.4.4.9.6,1.5.6.9,0,1.5-.4,1.8-1.1h2.5c-.3.9-.8,1.6-1.5,2.2s-1.7.8-2.7.8c-.9,0-1.7-.2-2.4-.6s-1.2-.9-1.6-1.7c-.4-.7-.6-1.5-.6-2.5c0-.9.2-1.8.6-2.5s.9-1.3,1.6-1.6c.7-.4,1.5-.6,2.4-.6s1.6.2,2.3.6s1.2.9,1.6,1.6.6,1.5.6,2.4c0,.3,0,.6-.1.9Zm-2.3-1.5c0-.6-.2-1.1-.6-1.4-.4-.4-.9-.5-1.5-.5s-1.1.2-1.4.5c-.4.3-.6.8-.7,1.4h4.2Z" fill="#03003d"/><path d="M316.6,249.9c.5-.3,1-.4,1.6-.4v2.4h-.6c-.7,0-1.3.2-1.6.5-.4.3-.6.9-.6,1.8v4.5h-2.3v-9.1h2.3v1.4c.4-.4.7-.8,1.2-1.1Z" fill="#03003d"/><path d="M324,251.5h-1.6v7.2h-2.3v-7.2h-1v-1.9h1v-.5c0-1.1.3-1.9,1-2.5.6-.5,1.6-.8,2.9-.7v1.9c-.6,0-.9.1-1.2.3-.2.2-.3.6-.3,1.1v.4h1.6v1.9h-.1Z" fill="#03003d"/><path d="M327.2,258.3c-.7-.4-1.3-.9-1.7-1.7s-.6-1.5-.6-2.5c0-.9.2-1.8.6-2.5s1-1.3,1.7-1.7s1.5-.6,2.4-.6s1.7.2,2.4.6s1.3.9,1.7,1.7.6,1.5.6,2.5c0,.9-.2,1.8-.6,2.5s-1,1.3-1.7,1.7-1.5.6-2.4.6-1.7-.2-2.4-.6Zm3.5-1.7c.4-.2.7-.5.9-.9s.3-.9.3-1.5c0-.9-.2-1.5-.7-2s-1-.7-1.7-.7-1.2.2-1.7.7c-.4.5-.7,1.1-.7,2s.2,1.5.6,2s1,.7,1.6.7s1-.1,1.4-.3Z" fill="#03003d"/><path d="M339.4,249.9c.5-.3,1-.4,1.6-.4v2.4h-.6c-.7,0-1.3.2-1.6.5s-.6.9-.6,1.8v4.5h-2.2v-9.1h2.3v1.4c.3-.4.7-.8,1.1-1.1Z" fill="#03003d"/><path d="M356.6,250.6c.7.7,1,1.6,1,2.9v5.3h-2.3v-5c0-.7-.2-1.3-.5-1.6-.4-.4-.9-.6-1.5-.6s-1.1.2-1.5.6-.6.9-.6,1.6v5h-2.2v-5c0-.7-.2-1.3-.5-1.6s-.9-.6-1.5-.6-1.1.2-1.5.6-.6.9-.6,1.6v5h-2.3v-9.1h2.3v1.1c.3-.4.7-.7,1.1-.9.5-.2,1-.3,1.5-.3.7,0,1.3.2,1.9.5s1,.7,1.3,1.3c.3-.5.7-.9,1.3-1.3s1.2-.5,1.8-.5c1.3-.1,2.2.3,2.8,1Z" fill="#03003d"/><path d="M359.8,251.7c.4-.7.9-1.3,1.5-1.6.6-.4,1.3-.6,2.1-.6.7,0,1.3.1,1.8.4s.9.6,1.2,1v-1.3h2.3v9.1h-2.3v-1.3c-.3.4-.7.8-1.2,1.1s-1.1.4-1.8.4c-.8,0-1.5-.2-2.1-.6s-1.1-1-1.5-1.7-.6-1.5-.6-2.5c.1-.8.3-1.7.6-2.4Zm6.3,1.1c-.2-.4-.5-.7-.9-.9s-.8-.3-1.2-.3-.8.1-1.2.3-.7.5-.9.9-.3.9-.3,1.4.1,1,.3,1.4.5.7.9.9.8.3,1.2.3.8-.1,1.2-.3.7-.5.9-.9.3-.9.3-1.4-.1-1-.3-1.4Z" fill="#03003d"/><path d="M378.7,250.6c.7.7,1,1.6,1,2.9v5.3h-2.3v-5c0-.7-.2-1.3-.5-1.7-.4-.4-.9-.6-1.5-.6s-1.1.2-1.5.6-.6.9-.6,1.7v5h-2.3v-9.1h2.3v1.1c.3-.4.7-.7,1.2-.9s1-.3,1.6-.3c1.1-.1,1.9.3,2.6,1Z" fill="#03003d"/><path d="M381.9,251.7c.4-.7.9-1.3,1.6-1.6.7-.4,1.5-.6,2.3-.6c1.1,0,2.1.3,2.8.8s1.2,1.4,1.5,2.4h-2.5c-.1-.4-.4-.7-.7-.9s-.7-.3-1.2-.3c-.7,0-1.2.2-1.6.7s-.6,1.2-.6,2c0,.9.2,1.5.6,2s.9.7,1.6.7c.9,0,1.5-.4,1.8-1.2h2.5c-.3,1-.8,1.8-1.5,2.4s-1.7.9-2.8.9c-.9,0-1.7-.2-2.3-.6s-1.2-.9-1.6-1.6-.6-1.5-.6-2.5.3-1.9.7-2.6Z" fill="#03003d"/><path d="M400.2,254.9h-6.7c.1.7.3,1.2.7,1.5.4.4.9.6,1.5.6.9,0,1.5-.4,1.8-1.1h2.5c-.3.9-.8,1.6-1.5,2.2s-1.7.8-2.7.8c-.9,0-1.7-.2-2.4-.6s-1.2-.9-1.6-1.7-.6-1.5-.6-2.5c0-.9.2-1.8.6-2.5s.9-1.3,1.6-1.6c.7-.4,1.5-.6,2.4-.6s1.6.2,2.3.6s1.2.9,1.6,1.6.6,1.5.6,2.4c0,.3-.1.6-.1.9Zm-2.3-1.5c0-.6-.2-1.1-.6-1.4-.4-.4-.9-.5-1.5-.5s-1.1.2-1.4.5c-.4.3-.6.8-.7,1.4h4.2Z" fill="#03003d"/><path d="M409.4,249.9c.5-.3,1.1-.4,1.8-.4.8,0,1.5.2,2.1.6s1.1.9,1.5,1.6.6,1.5.6,2.5c0,.9-.2,1.8-.6,2.5s-.9,1.3-1.5,1.7-1.3.6-2.1.6c-.7,0-1.3-.1-1.8-.4s-.9-.6-1.2-1v5.6h-2.3v-13.5h2.3v1.3c.3-.4.7-.8,1.2-1.1Zm3.2,2.9c-.2-.4-.5-.7-.9-.9s-.8-.3-1.2-.3-.8.1-1.2.3-.7.5-.9.9-.3.9-.3,1.4.1,1,.3,1.4.5.7.9.9.8.3,1.2.3.8-.1,1.2-.3.7-.5.9-.9.3-.9.3-1.4c.1-.6,0-1-.3-1.4Z" fill="#03003d"/><path d="M418.7,258.3c-.7-.4-1.3-.9-1.7-1.7s-.6-1.5-.6-2.5c0-.9.2-1.8.6-2.5s1-1.3,1.7-1.7s1.5-.6,2.4-.6s1.7.2,2.4.6s1.3.9,1.7,1.7.6,1.5.6,2.5c0,.9-.2,1.8-.6,2.5s-1,1.3-1.7,1.7-1.5.6-2.4.6-1.7-.2-2.4-.6Zm3.5-1.7c.4-.2.7-.5.9-.9s.3-.9.3-1.5c0-.9-.2-1.5-.7-2s-1-.7-1.7-.7-1.2.2-1.7.7c-.4.5-.7,1.1-.7,2s.2,1.5.7,2c.4.5,1,.7,1.6.7s1-.1,1.3-.3Z" fill="#03003d"/><path d="M436.1,249.7v9.1h-2.3v-1.2c-.3.4-.7.7-1.2.9s-1,.3-1.6.3c-.7,0-1.3-.2-1.9-.5-.5-.3-1-.7-1.3-1.3s-.5-1.3-.5-2.1v-5.3h2.3v5c0,.7.2,1.3.5,1.7.4.4.9.6,1.5.6s1.1-.2,1.5-.6.5-.9.5-1.7v-5h2.5v.1Z" fill="#03003d"/><path d="M441.8,249.9c.5-.3,1-.4,1.6-.4v2.4h-.6c-.7,0-1.3.2-1.6.5-.4.3-.6.9-.6,1.8v4.5h-2.3v-9.1h2.3v1.4c.4-.4.8-.8,1.2-1.1Z" fill="#03003d"/></g><g><path d="M243.7,306.9c.5-.8,1.4-1.3,2.6-1.3s2.1.4,2.6,1.3.8,2,.8,3.5-.3,2.7-.8,3.6-1.4,1.3-2.6,1.3-2.1-.4-2.6-1.3-.8-2-.8-3.6c0-1.5.2-2.7.8-3.5Zm4.4,1.7c-.1-.5-.3-.9-.6-1.2s-.7-.5-1.2-.5-1,.2-1.2.5c-.3.3-.5.7-.6,1.2s-.1,1.1-.1,1.8s0,1.3.1,1.8.3.9.6,1.2.7.5,1.2.5s1-.2,1.2-.5.5-.7.6-1.2.1-1.1.1-1.8s0-1.3-.1-1.8Z" fill="#03003d"/><path d="M257,310v1.3h-5.4v-1.3h5.4Z" fill="#03003d"/><path d="M258.7,313.3v-1.1l4.4-6.3h1.8v6.1h1.2v1.3h-1.2v2h-1.5v-2h-4.7Zm4.8-5.9l-3.1,4.6h3.1v-4.6Z" fill="#03003d"/><path d="M269.8,313.7c.3.2.7.3,1.2.3.6,0,1.1-.2,1.4-.7s.4-1.3.4-2.5c-.2.3-.5.5-.9.7s-.8.2-1.2.2c-.6,0-1.1-.1-1.5-.3-.5-.2-.8-.6-1.1-1-.3-.5-.4-1-.4-1.7c0-1,.3-1.7.8-2.3.6-.6,1.3-.9,2.3-.9c1.2,0,2,.4,2.5,1.2s.8,2,.8,3.6c0,1.1-.1,2-.3,2.8-.2.7-.5,1.3-1,1.6-.5.4-1.1.5-1.9.5-.9,0-1.7-.2-2.2-.7s-.8-1.1-.8-1.8h1.4c0,.5.2.8.5,1Zm2.3-3.7c.3-.3.5-.8.5-1.3c0-.6-.2-1.1-.5-1.4s-.8-.5-1.3-.5-1,.2-1.3.5-.5.8-.5,1.4c0,.5.2,1,.5,1.3s.8.5,1.4.5c.5,0,.9-.2,1.2-.5Z" fill="#03003d"/></g><g><path d="M324.4,307.1h-4.4v2.6c.2-.2.5-.4.8-.6.4-.2.7-.2,1.2-.2.7,0,1.3.2,1.8.5s.8.7,1,1.2.3,1,.3,1.5c0,.6-.1,1.2-.4,1.7-.2.5-.6.9-1.1,1.2s-1.1.4-1.8.4c-1,0-1.7-.2-2.3-.7s-.9-1.1-1-1.9h1.5c.1.4.3.7.6,1c.3.2.7.4,1.2.4.6,0,1.1-.2,1.4-.6s.5-.9.5-1.5-.2-1.1-.5-1.4-.8-.5-1.4-.5c-.4,0-.8.1-1.1.3s-.5.5-.6.9h-1.4v-5.5h5.8v1.2h-.1Z" fill="#03003d"/><path d="M327.4,306.9c.5-.8,1.4-1.3,2.6-1.3s2.1.4,2.6,1.3.8,2,.8,3.5-.3,2.7-.8,3.6-1.4,1.3-2.6,1.3-2.1-.4-2.6-1.3-.8-2-.8-3.6c0-1.5.3-2.7.8-3.5Zm4.4,1.7c-.1-.5-.3-.9-.6-1.2s-.7-.5-1.2-.5-1,.2-1.2.5c-.3.3-.5.7-.6,1.2s-.1,1.1-.1,1.8s0,1.3.1,1.8.3.9.6,1.2.7.5,1.2.5s1-.2,1.2-.5.5-.7.6-1.2.1-1.1.1-1.8c.1-.7,0-1.3-.1-1.8Z" fill="#03003d"/><path d="M340.7,310v1.3h-5.4v-1.3h5.4Z" fill="#03003d"/><path d="M342.9,308.2c0-.5.1-.9.4-1.3.2-.4.6-.7,1.1-.9s1-.3,1.7-.3s1.2.1,1.7.3.8.5,1.1.9c.2.4.4.8.4,1.3s-.1.9-.4,1.3c-.2.4-.6.7-1,.9.5.2.9.5,1.2.9s.4.9.4,1.5-.1,1.1-.4,1.5-.7.8-1.2,1-1.1.4-1.8.4-1.2-.1-1.7-.4c-.5-.2-.9-.6-1.2-1s-.4-.9-.4-1.5.1-1.1.4-1.5.7-.7,1.2-.9c-1.1-.5-1.5-1.2-1.5-2.2Zm1.7,3.2c-.4.3-.5.7-.5,1.2s.2.9.5,1.2.8.5,1.4.5s1.1-.2,1.4-.5.5-.7.5-1.2-.2-.9-.5-1.2c-.4-.3-.8-.4-1.4-.4s-1,.1-1.4.4Zm2.7-4.2c-.3-.3-.7-.4-1.3-.4-.5,0-.9.1-1.2.4s-.5.6-.5,1.1c0,.4.2.8.5,1.1s.7.4,1.2.4.9-.1,1.2-.4.5-.6.5-1.1c0-.4-.1-.8-.4-1.1Z" fill="#03003d"/><path d="M351.7,306.9c.5-.8,1.4-1.3,2.6-1.3s2.1.4,2.6,1.3.8,2,.8,3.5-.3,2.7-.8,3.6-1.4,1.3-2.6,1.3-2.1-.4-2.6-1.3-.8-2-.8-3.6c.1-1.5.3-2.7.8-3.5Zm4.5,1.7c-.1-.5-.3-.9-.6-1.2s-.7-.5-1.2-.5-1,.2-1.2.5c-.3.3-.5.7-.6,1.2s-.1,1.1-.1,1.8s0,1.3.1,1.8.3.9.6,1.2.7.5,1.2.5s1-.2,1.2-.5.5-.7.6-1.2.1-1.1.1-1.8-.1-1.3-.1-1.8Z" fill="#03003d"/></g><g><path d="M403.3,313.9c.3.2.7.3,1.2.3.6,0,1.1-.2,1.4-.7s.4-1.3.4-2.5c-.2.3-.5.5-.9.7s-.8.2-1.2.2c-.6,0-1.1-.1-1.5-.3-.5-.2-.8-.6-1.1-1-.3-.5-.4-1-.4-1.7c0-1,.3-1.7.8-2.3.6-.6,1.3-.9,2.3-.9c1.2,0,2,.4,2.5,1.2s.8,2,.8,3.6c0,1.1-.1,2-.3,2.8s-.5,1.3-1,1.6c-.5.4-1.1.5-1.9.5-.9,0-1.7-.2-2.2-.7s-.8-1.1-.8-1.8h1.4c0,.5.2.8.5,1Zm2.3-3.7c.3-.3.5-.8.5-1.3c0-.6-.2-1.1-.5-1.4s-.8-.5-1.3-.5-1,.2-1.3.5-.5.8-.5,1.4c0,.5.2,1,.5,1.3s.8.5,1.4.5c.5,0,.9-.1,1.2-.5Z" fill="#03003d"/><path d="M409.9,307.1c.5-.8,1.4-1.3,2.6-1.3s2.1.4,2.6,1.3.8,2,.8,3.5-.3,2.7-.8,3.6-1.4,1.3-2.6,1.3-2.1-.4-2.6-1.3-.8-2-.8-3.6c.1-1.5.3-2.6.8-3.5Zm4.5,1.8c-.1-.5-.3-.9-.6-1.2s-.7-.5-1.2-.5-1,.2-1.2.5c-.3.3-.5.7-.6,1.2s-.1,1.1-.1,1.8s0,1.3.1,1.8.3.9.6,1.2.7.5,1.2.5s1-.2,1.2-.5.5-.7.6-1.2.1-1.1.1-1.8c0-.8-.1-1.4-.1-1.8Z" fill="#03003d"/><path d="M423.2,310.2v1.3h-5.4v-1.3h5.4Z" fill="#03003d"/><path d="M425,307.4v-1.4h2.7v9.5h-1.5v-8.2h-1.2v.1Z" fill="#03003d"/><path d="M430.5,307.1c.5-.8,1.4-1.3,2.6-1.3s2.1.4,2.6,1.3.8,2,.8,3.5-.3,2.7-.8,3.6-1.4,1.3-2.6,1.3-2.1-.4-2.6-1.3-.8-2-.8-3.6c0-1.5.3-2.6.8-3.5Zm4.4,1.8c-.1-.5-.3-.9-.6-1.2s-.7-.5-1.2-.5-1,.2-1.2.5c-.3.3-.5.7-.6,1.2s-.1,1.1-.1,1.8s0,1.3.1,1.8.3.9.6,1.2.7.5,1.2.5s1-.2,1.2-.5.5-.7.6-1.2.1-1.1.1-1.8c.1-.8,0-1.4-.1-1.8Z" fill="#03003d"/><path d="M438.8,307.1c.5-.8,1.4-1.3,2.6-1.3s2.1.4,2.6,1.3.8,2,.8,3.5-.3,2.7-.8,3.6-1.4,1.3-2.6,1.3-2.1-.4-2.6-1.3-.8-2-.8-3.6c.1-1.5.3-2.6.8-3.5Zm4.5,1.8c-.1-.5-.3-.9-.6-1.2s-.7-.5-1.2-.5-1,.2-1.2.5c-.3.3-.5.7-.6,1.2s-.1,1.1-.1,1.8s0,1.3.1,1.8.3.9.6,1.2.7.5,1.2.5s1-.2,1.2-.5.5-.7.6-1.2.1-1.1.1-1.8c0-.8,0-1.4-.1-1.8Z" fill="#03003d"/></g><g><path d="M231,276.9c.7.7,1,1.7,1,2.9v5.4h-2.8v-5c0-.6-.2-1.1-.5-1.4s-.8-.5-1.3-.5c-.6,0-1,.2-1.3.5s-.5.8-.5,1.4v5h-2.8v-5c0-.6-.2-1.1-.5-1.4s-.8-.5-1.3-.5c-.6,0-1,.2-1.3.5s-.5.8-.5,1.4v5h-2.8v-9.2h2.8v1.2c.3-.4.7-.7,1.1-.9s1-.3,1.6-.3c.7,0,1.3.1,1.9.4.5.3,1,.7,1.3,1.3.3-.5.8-.9,1.3-1.2.6-.3,1.2-.5,1.8-.5c1.2-.1,2.2.2,2.8.9Z" fill="#03003d"/><path d="M235.8,284.8c-.7-.4-1.3-.9-1.7-1.7-.4-.7-.6-1.6-.6-2.5c0-1,.2-1.8.6-2.5s1-1.3,1.7-1.7s1.6-.6,2.5-.6s1.7.2,2.5.6c.7.4,1.3.9,1.7,1.7.4.7.6,1.6.6,2.5c0,1-.2,1.8-.6,2.5s-1,1.3-1.7,1.7-1.6.6-2.5.6-1.7-.2-2.5-.6Zm3.9-2.4c.4-.4.6-1,.6-1.7s-.2-1.3-.6-1.7-.8-.6-1.4-.6-1,.2-1.4.6-.5,1-.5,1.7.2,1.3.5,1.7.8.6,1.4.6s1-.2,1.4-.6Z" fill="#03003d"/><path d="M252.9,277c.6.7,1,1.7,1,2.9v5.4h-2.8v-5c0-.6-.2-1.1-.5-1.4s-.8-.5-1.3-.5-1,.2-1.3.5-.5.8-.5,1.4v5h-2.8v-9.3h2.8v1.2c.3-.4.7-.7,1.2-1c.5-.2,1-.4,1.6-.4c1.1.1,2,.5,2.6,1.2Z" fill="#03003d"/><path d="M263.1,278.3v2.4h-7.3v-2.4h7.3Z" fill="#03003d"/><path d="M274.3,281.3h-6.4c0,.6.2,1,.6,1.3.3.3.7.5,1.2.5.7,0,1.2-.3,1.5-.9h3c-.2.6-.4,1.2-.8,1.6s-.9.9-1.5,1.1c-.6.3-1.3.4-2,.4-.9,0-1.7-.2-2.4-.6s-1.3-.9-1.7-1.7c-.4-.7-.6-1.6-.6-2.5s.2-1.8.6-2.5.9-1.3,1.7-1.7s1.5-.6,2.4-.6s1.7.2,2.4.6s1.2.9,1.6,1.6.6,1.5.6,2.4c-.2.5-.2.7-.2,1Zm-2.9-1.6c0-.5-.2-.9-.5-1.2s-.7-.4-1.2-.4-.9.1-1.2.4-.5.7-.6,1.2h3.5Z" fill="#03003d"/><path d="M284.1,277c.6.7,1,1.7,1,2.9v5.4h-2.8v-5c0-.6-.2-1.1-.5-1.4s-.8-.5-1.3-.5-1,.2-1.3.5-.5.8-.5,1.4v5h-2.8v-9.3h2.8v1.2c.3-.4.7-.7,1.2-1c.5-.2,1-.4,1.6-.4c1.1.1,1.9.5,2.6,1.2Z" fill="#03003d"/><path d="M292.2,282.9v2.4h-1.4c-1,0-1.8-.3-2.4-.8s-.9-1.3-.9-2.5v-3.7h-1.1v-2.3h1.1v-2.3h2.8v2.3h1.9v2.4h-1.9v3.7c0,.3.1.5.2.6s.4.2.7.2h1Z" fill="#03003d"/><path d="M297.9,276.3c.5-.3,1.1-.4,1.7-.4v3h-.8c-.7,0-1.2.2-1.6.5s-.5.8-.5,1.6v4.3h-2.8v-9.3h2.8v1.5c.3-.5.7-.9,1.2-1.2Z" fill="#03003d"/><path d="M309.6,281.3h-6.4c0,.6.2,1,.6,1.3.3.3.7.5,1.2.5.7,0,1.2-.3,1.5-.9h3c-.2.6-.4,1.2-.8,1.6s-.9.9-1.5,1.1c-.6.3-1.3.4-2,.4-.9,0-1.7-.2-2.4-.6s-1.3-.9-1.7-1.7c-.4-.7-.6-1.6-.6-2.5s.2-1.8.6-2.5.9-1.3,1.7-1.7s1.5-.6,2.4-.6s1.7.2,2.4.6s1.2.9,1.6,1.6.6,1.5.6,2.4c-.1.5-.1.7-.2,1Zm-2.8-1.6c0-.5-.2-.9-.5-1.2s-.7-.4-1.2-.4-.9.1-1.2.4-.5.7-.6,1.2h3.5Z" fill="#03003d"/><path d="M315.2,276.3c.5-.3,1.1-.4,1.7-.4.8,0,1.5.2,2.1.6s1.1.9,1.5,1.7.5,1.6.5,2.5c0,1-.2,1.8-.5,2.5-.4.7-.9,1.3-1.5,1.7s-1.3.6-2.1.6c-.6,0-1.2-.1-1.7-.4s-.9-.6-1.2-1v5.7h-2.8v-13.8h2.8v1.3c.3-.4.7-.8,1.2-1Zm2.3,2.7c-.4-.4-.9-.6-1.5-.6s-1,.2-1.4.6-.6,1-.6,1.7.2,1.3.6,1.7.9.6,1.4.6s1-.2,1.4-.6.6-1,.6-1.7c.1-.8-.1-1.3-.5-1.7Z" fill="#03003d"/><path d="M326.6,276.3c.5-.3,1.1-.4,1.7-.4v3h-.8c-.7,0-1.2.2-1.6.5s-.5.8-.5,1.6v4.3h-2.8v-9.3h2.8v1.5c.3-.5.7-.9,1.2-1.2Z" fill="#03003d"/><path d="M329.8,274.6c-.3-.3-.5-.7-.5-1.1s.2-.8.5-1.1.7-.4,1.2-.4.9.1,1.2.4.5.7.5,1.1-.2.8-.5,1.1-.7.4-1.2.4-.9-.1-1.2-.4Zm2.6,1.4v9.3h-2.8v-9.3h2.8Z" fill="#03003d"/><path d="M336.1,285c-.6-.3-1.1-.7-1.5-1.1-.4-.5-.6-1-.6-1.6h2.8c0,.3.2.6.5.8s.6.3,1,.3.6-.1.8-.2.3-.3.3-.5c0-.3-.1-.5-.4-.6s-.7-.3-1.3-.4c-.7-.2-1.2-.3-1.7-.5-.4-.2-.8-.4-1.1-.8s-.5-.9-.5-1.5c0-.5.1-1,.4-1.5.3-.4.7-.8,1.3-1c.6-.3,1.3-.4,2-.4c1.2,0,2.1.3,2.8.9s1.1,1.3,1.2,2.3h-2.6c0-.3-.2-.6-.4-.8s-.6-.3-.9-.3-.6.1-.8.2-.3.3-.3.5c0,.3.1.5.4.6s.7.3,1.3.4c.7.2,1.2.4,1.7.5.4.2.8.5,1.1.8.3.4.5.9.5,1.5c0,.5-.2,1-.5,1.5-.3.4-.7.8-1.3,1s-1.2.4-2,.4c-.8-.1-1.5-.2-2.2-.5Z" fill="#03003d"/><path d="M352.5,281.3h-6.4c0,.6.2,1,.6,1.3.3.3.7.5,1.2.5.7,0,1.2-.3,1.5-.9h3c-.2.6-.4,1.2-.8,1.6s-.9.9-1.5,1.1-1.3.4-2,.4c-.9,0-1.7-.2-2.4-.6s-1.3-.9-1.7-1.7-.6-1.6-.6-2.5.2-1.8.6-2.5.9-1.3,1.7-1.7c.7-.4,1.5-.6,2.4-.6s1.7.2,2.4.6s1.2.9,1.6,1.6.6,1.5.6,2.4c-.1.5-.2.7-.2,1Zm-2.9-1.6c0-.5-.2-.9-.5-1.2s-.7-.4-1.2-.4-.9.1-1.2.4-.5.7-.6,1.2h3.5Z" fill="#03003d"/><path d="M354.2,285c-.3-.3-.5-.7-.5-1.1s.2-.8.5-1.1.7-.5,1.2-.5.9.2,1.2.5.5.7.5,1.1-.2.8-.5,1.1-.7.4-1.2.4-.9-.1-1.2-.4Z" fill="#03003d"/><path d="M373.4,276.9c.7.7,1,1.7,1,2.9v5.4h-2.8v-5c0-.6-.2-1.1-.5-1.4s-.8-.5-1.3-.5-1,.2-1.3.5-.5.8-.5,1.4v5h-2.8v-5c0-.6-.2-1.1-.5-1.4s-.8-.5-1.3-.5-1,.2-1.3.5-.5.8-.5,1.4v5h-2.8v-9.2h2.8v1.2c.3-.4.7-.7,1.1-.9.5-.2,1-.3,1.6-.3.7,0,1.3.1,1.9.4s1,.7,1.3,1.3c.3-.5.8-.9,1.3-1.2.6-.3,1.2-.5,1.8-.5c1.2-.1,2.1.2,2.8.9Z" fill="#03003d"/><path d="M376.4,278.1c.4-.7.9-1.3,1.5-1.7s1.3-.6,2.1-.6c.7,0,1.2.1,1.7.4s.9.6,1.1,1v-1.2h2.8v9.3h-2.8v-1.3c-.3.4-.7.8-1.2,1s-1.1.4-1.7.4c-.8,0-1.4-.2-2.1-.6-.6-.4-1.1-1-1.5-1.7s-.5-1.6-.5-2.5.2-1.8.6-2.5Zm5.8.9c-.4-.4-.9-.6-1.4-.6s-1,.2-1.4.6-.6,1-.6,1.7.2,1.3.6,1.7.9.6,1.4.6s1-.2,1.4-.6.6-1,.6-1.7c0-.8-.2-1.3-.6-1.7Z" fill="#03003d"/></g><circle r="7" transform="translate(226 310.9)" fill="#e95e85" stroke="#fff" stroke-miterlimit="10"/><circle r="7" transform="translate(301.7 310.9)" fill="#f0a841" stroke="#fff" stroke-miterlimit="10"/><circle r="7" transform="translate(383.6 310.9)" fill="#00cc61"/><polyline points="178.4,411.5 202.7,387.3 249.2,433.8 270.8,412.1 457.6,412.1" fill="none" stroke="#ccd3ef" stroke-linecap="round" stroke-miterlimit="10"/><rect width="35.7" height="15.8" rx="0" ry="0" transform="translate(380.1 404.3)" fill="#00cc61"/><g><path d="M131.8,353.1L59.4,380.8c-4.2,1.6-6.3,6.3-4.7,10.4l25,65.4l87.5-33.5-25-65.4c-1.5-4.1-6.2-6.2-10.4-4.6ZM66,392.9c-2,.8-4.3-.2-5.1-2.3s.2-4.4,2.3-5.1c2.1-.8,4.3.2,5.1,2.3s-.2,4.3-2.3,5.1ZM78.8,388c-2.1.8-4.3-.2-5.1-2.3s.2-4.4,2.3-5.1s4.3.2,5.1,2.3-.2,4.3-2.3,5.1Z" fill="#e1edfd"/><path d="M131.5,353.2L59.7,380.7c-4.3,1.7-6.5,6.5-4.9,10.9l3.9,10.3l87.5-33.5-3.9-10.3c-1.6-4.4-6.5-6.5-10.8-4.9v0ZM66,392.9c-2,.8-4.3-.2-5.1-2.3s.2-4.4,2.3-5.1c2.1-.8,4.3.2,5.1,2.3s-.2,4.3-2.3,5.1ZM78.8,388c-2.1.8-4.3-.2-5.1-2.3s.2-4.4,2.3-5.1s4.3.2,5.1,2.3-.2,4.3-2.3,5.1Z" fill="#c2ddfc"/><g><path d="M106.9,396.5c-24.2,9.2-36.3,36.1-27.2,60c0,0,0,0,0,.1l15-5.8c0,0,0,0,0-.1-6-15.7,2-33.3,17.8-39.4c7.7-2.9,15.8-2.6,22.7.2l7.7-14.1c-10.9-4.9-23.8-5.6-36-.9v0Z" fill="#2b64f6"/><path d="M143,397.5l-7.7,14.1c7.5,3.1,13.8,9.1,16.9,17.2c0,0,0,0,0,.1l15-5.8c0,0,0,0,0-.1-4.5-11.8-13.4-20.7-24.2-25.5Z" fill="#be6cf7"/></g><g id="esizEwAGY6384_tr" transform="translate(123.4,439.6) rotate(-135.864315)"><g transform="translate(-123.399985,-439.599997)"><path d="M139.7,426.4c.5-8.5.8-16.6.8-24.2-5.6,5-11.3,10.3-17.1,16.1-4,4-7.8,8-11.5,11.9v0c-3.7,4.1-5,10.2-2.9,15.7c3,7.9,11.9,11.9,19.8,8.9c4.7-1.8,8-5.7,9.3-10.2c0,0,0,0,0,0s0-.1,0-.1c.5-1.6.6-3.4.5-5.1.5-4.2.8-8.6,1.1-13v0Z" fill="#81c9fb"/><circle r="7.6" transform="translate(123.4 439.6)" fill="#2b65f0"/></g></g></g><circle r="42.8" transform="translate(470.9 82.5)" fill="#00cc61"/><g><path d="M493.4,60.2c-6.9-.7-12.4.5-16.7,2.6-7.5,3.5-11.3,9.3-12.6,11.5-.9-.3-5-1.5-9.4.7-5.5,2.7-6.6,8.4-6.7,9.1h10.2l10.6,10.4v10.4c.8-.2,6.3-1.7,9-7.2c1.9-3.8,1.3-7.4,1-8.6.1,0,17-15.2,14.6-28.9v0ZM475.5,73.5c0-2.2,1.8-3.9,3.9-3.9s3.9,1.8,3.9,3.9-1.8,3.9-3.9,3.9-3.9-1.7-3.9-3.9Z" fill="#fff"/><path d="M456,92.3l4.7,4.7c-.9.9-2.2,2-4,3-2.1,1.2-4.1,1.7-5.5,2c.1-1.2.4-3.3,1.5-5.5c1.1-2,2.4-3.4,3.3-4.2v0Z" fill="#fff"/></g><path d="M458.6,145.8h24.4c4.3,0,7.8,3.5,7.8,7.8v0c0,4.3-3.5,7.8-7.8,7.8h-24.4c-4.3,0-7.8-3.5-7.8-7.8v0c.1-4.4,3.6-7.8,7.8-7.8Z" fill="#00cc61"/><line x1="293.4" y1="264.2" x2="408.1" y2="264.2" transform="matrix(1.035769 0 0 1-12.545977 0)" fill="none" stroke="#03003d" stroke-width="0.75" stroke-miterlimit="10"/></g><g id="esizEwAGY6393_tr" transform="translate(537.119934,278.365318) rotate(0)"><g transform="translate(-537.119934,-278.365318)"><path d="M537.3,231v0c0,2.5,1.9,4.6,4.3,4.8c22.1,2.2,39.2,21.3,38.3,44.2-.8,22.1-18.9,40.2-41,41-24.4.9-44.4-18.5-44.4-42.7c0-21.5,15.9-39.3,36.5-42.3c2.4-.4,4.1-2.4,4.1-4.8v0c0-2.9-2.6-5.2-5.5-4.8-26.2,3.8-46.1,26.9-44.8,54.5c1.3,26.9,23.3,48.7,50.2,49.7c29.9,1.2,54.5-22.7,54.5-52.4c0-27.2-20.7-49.5-47.2-52.1-2.6-.2-5,2-5,4.9v0Z" fill="#00cc61"/></g></g><g id="esizEwAGY6395" transform="translate(0 0.000003)" opacity="0"><g><path d="M523.1,287.7c.8.6,1.9,1,3.3,1c1.8,0,3-.7,3.9-2.1s1.2-3.7,1.2-7.1c-.6.8-1.4,1.5-2.5,1.9-1.1.5-2.2.7-3.5.7-1.6,0-3.1-.3-4.4-1s-2.3-1.6-3.1-2.9-1.1-2.9-1.1-4.7c0-2.7.8-4.9,2.4-6.5s3.8-2.4,6.6-2.4c3.4,0,5.8,1.1,7.2,3.4c1.4,2.2,2.1,5.7,2.1,10.3c0,3.2-.3,5.8-.8,7.8s-1.5,3.6-2.8,4.6-3.1,1.6-5.5,1.6c-2.6,0-4.7-.7-6.1-2.1s-2.2-3.1-2.4-5.2h3.9c.3,1.1.8,2,1.6,2.7Zm6.7-10.6c.9-.9,1.3-2.2,1.3-3.7c0-1.7-.5-3-1.4-4s-2.1-1.4-3.7-1.4-2.8.5-3.7,1.5-1.4,2.3-1.4,3.8.4,2.8,1.3,3.7s2.2,1.5,4,1.5c1.5,0,2.7-.4,3.6-1.4Z" fill="#00cc61"/><path d="M546.7,287.7c.8.6,1.9,1,3.3,1c1.8,0,3-.7,3.9-2.1s1.2-3.7,1.2-7.1c-.6.8-1.4,1.5-2.5,1.9s-2.2.7-3.5.7c-1.6,0-3.1-.3-4.4-1s-2.3-1.6-3.1-2.9-1.1-2.9-1.1-4.7c0-2.7.8-4.9,2.4-6.5s3.8-2.4,6.6-2.4c3.4,0,5.8,1.1,7.2,3.4s2.1,5.7,2.1,10.3c0,3.2-.3,5.8-.8,7.8s-1.5,3.6-2.8,4.6-3.1,1.6-5.5,1.6c-2.6,0-4.7-.7-6.1-2.1s-2.2-3.1-2.4-5.2h3.9c.2,1.1.8,2,1.6,2.7Zm6.6-10.6c.9-.9,1.3-2.2,1.3-3.7c0-1.7-.5-3-1.4-4s-2.1-1.4-3.7-1.4-2.8.5-3.7,1.5-1.4,2.3-1.4,3.8.4,2.8,1.3,3.7c.9,1,2.2,1.5,4,1.5c1.6,0,2.7-.4,3.6-1.4Z" fill="#00cc61"/></g></g></svg>
